Patient4_TMGait_0pt5_02_right_42_EMG.mot
version=1
nRows=40
nColumns=33
inDegrees=no
endheader
time	1LAddLong	2LGlutMax	3LGlutMed	4LIliopsoas	5LSemiMemb	6LBicFemLong	7LRecFem	8LVastMed	9LVastLat	10LGasMed	11LTibAnt	12lTibPost	13LPeroneusLong	14LSol	15LExtDigLong	16LFlexDigLong	17RAddLong	18RGlutMax	19RGlutMed	20RIliopsoas	21RSemiMemb	22RBicFemLong	23RRecFem	24RVastMed	25RVastLat	26RGasMed	27RTibAnt	28RTibPost	29RPeroneusLong	30RSol	31RExtDigLong	32RFlexDigLong
56.19	0.007782	-0.12375	-0.002747	0.013885	-0.003357	-0.044861	-0.032501	0.011749	0.079651	0.20294	0.021973	-0.007324	0.39215	0.14236	0.25345	-0.026245	0.011292	-0.049591	0.018158	-0.45944	-0.11795	0.20798	0.054016	0.004883	0.020905	0.023499	0.37354	-0.010376	-0.11337	-0.020447	-0.003662	0.005646
56.191	0.000153	-0.12238	0.050354	0.010834	-0.000305	-0.037079	0.023346	0.009918	0.076904	0.14938	0.016785	-0.010376	0.5954	0.14175	0.31525	-0.006561	0.022125	-0.074615	0.12848	-0.34714	0.20569	0.27618	0.11673	0.014038	0.024261	0.009003	0.2977	-0.005646	-0.36529	-0.035248	0.000305	-0.002747
56.192	0.007324	-0.12909	-0.10162	0.017853	0.003204	0.02655	0.050659	0.006409	0.10223	0.16205	0.005798	-0.007782	-0.35233	0.042725	0.28809	0.10315	0.010681	-0.08316	0.077209	-0.093842	0.21484	0.14587	0.11581	0.041809	0.037537	-0.002289	0.33569	-0.003967	-0.64133	-0.047302	0.000153	-0.006866
56.193	-0.002441	-0.12726	-0.088348	0.023346	0.00885	0.052338	0.059967	-0.010834	0.074463	0.075531	0.006561	-0.007782	-0.62546	-0.12711	0.11917	-0.064087	0.01236	-0.096741	0.10498	0.37445	0.062866	0.006714	0.13534	0.008087	0.054779	-0.015869	0.23758	-0.003662	-0.60272	-0.15411	0.000763	0.00473
56.194	-0.006866	-0.12375	-0.1149	0.018616	0.00473	0.047455	0.059509	-0.010529	0.062866	-0.083771	-0.009613	-0.007629	-0.06546	-0.27603	0.009766	-0.024567	0.03006	-0.055695	0.13931	0.61905	-0.033875	-0.10117	0.19928	-0.016327	0.032196	-0.016174	-0.021057	-0.009613	0.076904	-0.16708	0	-0.001068
56.195	0.000305	-0.082703	-0.055847	0.02182	0.012817	0.1059	0.037231	-0.002899	0.076904	-0.2507	0.016937	-0.012665	0.19745	-0.088043	0.046082	0.26993	0.074005	-0.036926	0.081635	0.46677	-0.031128	-0.13763	0.2121	-0.046234	0.028076	-0.017853	0.31952	-0.00473	0.61554	-0.1738	0.001068	-0.00412
56.196	-0.005951	-0.11749	-0.085449	0.030212	0.011749	0.063477	0.029144	0.001373	0.084991	-0.26245	0.043182	-0.00351	0.30487	0.083313	0.024414	0.090942	0.064392	-0.025177	0.2803	0.36331	-0.049286	-0.061951	0.23041	-0.12589	0.024261	-0.018921	0.28046	-0.003662	0.28275	-0.21271	-0.001068	-0.002289
56.197	-0.005493	-0.11017	-0.10971	-0.005188	0.012054	0.037079	0.040283	0.000458	0.1152	-0.1767	0.015869	0.017548	0.42328	0.29007	0.056152	-0.10819	0.025177	-0.021515	0.1059	0.23056	-0.086365	0.016174	0.21835	-0.15457	0.005341	-0.029297	-0.103	-0.007629	0.39948	-0.12665	0.004425	-0.007324
56.198	0.024109	-0.083313	-0.11643	-0.032349	0.011292	0.028687	0.044098	-0.002747	0.11169	0.066376	-0.001221	0.012207	-0.40848	0.40878	0.074005	-0.050507	-0.02243	-0.017853	-0.15503	0.006409	-0.098877	0.10666	0.20569	-0.14313	-0.009003	-0.061188	-0.06073	-0.00473	0.10498	-0.073242	-0.001068	-0.013275
56.199	0.014648	-0.090179	-0.093994	-0.001526	-0.002594	-0.032806	0.033264	0.000305	0.10315	0.47272	-0.025482	-0.11185	-0.45609	0.096893	0.059662	-0.0177	-0.050659	-0.002747	-0.42007	-0.11276	-0.10834	0.20416	0.084991	-0.17593	0.000763	-0.063171	-0.086517	-0.009003	-0.24948	0.063782	0	-0.004883
56.2	0.014191	-0.09201	-0.16769	0.000153	0.006866	-0.031586	0.037689	-0.005951	0.11368	0.62408	-0.005188	0.079498	-0.097656	-0.30792	-0.081177	-0.004578	-0.070496	-0.025787	-0.30945	-0.17364	0.012665	0.14679	0.036926	-0.19943	-0.030518	-0.076752	-0.10422	-0.004578	-0.17609	0.11871	-0.002289	-0.011902
56.201	0	-0.041962	-0.19257	0.016174	0.006561	-0.019379	0.034637	-0.005341	0.088654	0.33661	-0.03067	0.046844	0.60532	-0.53528	-0.11765	-0.001068	-0.065613	0.016327	-0.019531	-0.15732	0.059967	0.059814	-0.046234	-0.25223	-0.058441	-0.040283	-0.069275	-0.00412	0.15595	0.10284	-0.004883	-0.009918
56.202	0.002594	-0.07843	0.030518	0.013275	0.009918	0.015411	0.036621	-0.00473	0.088501	0.10925	-0.018158	-0.005035	0.47836	-0.59448	-0.076447	0.025635	-0.06012	0.022278	0.3067	-0.039825	0.034943	0.018311	-0.099335	-0.26886	-0.084534	-0.036316	0.0177	-0.004272	0.073242	0.075226	0.000458	-0.010071
56.203	0.001068	-0.07309	0.29282	0.012512	0.002136	0.011139	0.072174	-0.000763	0.068359	0.012207	0.015869	-0.011749	-0.056915	-0.39352	-0.026398	0.036163	-0.027161	0.056915	1.1987	-0.034027	0.047455	0.021667	-0.16144	-0.27664	-0.10635	-0.03952	0.053406	-0.007172	0.012817	0.005646	0.002289	-0.002594
56.204	-0.003204	-0.14969	0.013123	0.004578	0.009003	0.027618	0.085754	0.003967	0.063477	-0.22873	0.021362	-0.029144	-0.085602	0.021057	0.014038	0.008392	-0.001373	-0.01358	1.0553	-0.040436	0.057678	0.008392	-0.28854	-0.26535	-0.11154	-0.04303	0.10452	-0.007172	0.16373	-0.066071	0.000305	-0.000305
56.205	-0.00061	-0.093994	-0.057678	0.014648	-0.006561	0.072632	0.098877	0.005035	0.057678	-0.24078	0.026703	-0.019073	-0.72998	0.21194	-0.017242	0.004578	-0.022125	-0.039978	0.63828	-0.074463	0.034485	0.021057	-0.36057	-0.21149	-0.083771	-0.00824	0.20676	-0.009155	0.48218	-0.031433	-0.005798	-0.00473
56.206	-0.001068	-0.084991	-0.005646	0.014801	-0.006104	0.06134	0.112	0.010986	0.056458	-0.38605	0.049591	-0.003357	-0.11551	0.18875	-0.070953	0.009918	-0.037842	-0.11414	0.4744	-0.02182	-0.015259	0.027161	-0.25406	-0.22705	-0.042572	-0.019379	0.26169	-0.009918	0.37811	0.022736	0.000153	0.000458
56.207	-0.006866	-0.10284	0.049591	0.028992	-0.007782	-0.017548	0.067902	0.020294	0.023956	-0.21606	0.015564	0.026398	1.377	0.18051	-0.007477	0.01709	-0.041809	-0.20294	-0.19547	-0.005341	-0.004883	-0.002899	-0.086212	-0.24857	-0.039215	-0.034485	0.30456	-0.00412	0.26245	0.014648	0.000458	-0.003357
56.208	0.002747	-0.077515	0.10986	0.036774	0.000458	-0.050964	0.048676	0.009613	0.033722	-0.06134	-0.015259	0.01358	1.2776	0.19134	0.043793	0.001068	-0.029907	-0.21301	-0.24109	-0.000916	-0.014038	-0.001068	-0.080719	-0.16632	-0.005798	-0.029907	0.38788	0.003204	0.49957	-0.063171	0.00061	0.000916
56.209	0.001526	-0.062561	0.18677	0.046692	-0.000153	-0.036469	0.14572	0.009155	0.016174	0.035706	-0.024567	0.005188	0.018463	-0.10727	-0.011292	0.003357	-0.041046	-0.029297	0.071716	0.037384	-0.048828	-0.019531	-0.19241	-0.041809	0.1149	-0.023804	-0.090637	-0.000153	0.20966	-0.12741	-0.00061	0.00061
56.21	0.002136	-0.028229	0.13199	0.037994	0.003967	-0.02243	0.074463	0.010986	-0.018158	-0.00824	-0.011292	0.004578	-1.0017	-0.10422	-0.041656	0.00351	-0.031433	0.000916	-0.29037	0.12772	-0.065613	-0.023346	-0.12726	0.1683	0.17532	-0.019073	-0.34454	-0.001678	-0.98648	-0.19928	0.001221	-0.00061
56.211	0.016937	-0.073242	-0.015564	0.016632	0.038757	0.033417	0.050812	0.014191	-0.065308	-0.27161	-0.031738	-0.002899	-0.94299	-0.054321	-0.11719	0.019531	-0.019684	-0.06546	0.022888	0.028381	-0.086517	-0.040588	0.016785	0.24521	0.1561	-0.013733	-0.25665	-0.002747	-1.1392	-0.23315	0.001373	0.006561
56.212	0.009308	-0.0354	0.002594	-0.029297	0.034332	-0.00946	0.052948	0.015411	-0.069427	-0.38376	-0.015259	-0.008545	-0.20371	0.064087	-0.083313	0.0354	0.014191	-0.074158	0.059814	-0.031128	-0.018616	-0.038605	0.25024	0.20859	0.10925	-0.006714	-0.23758	-0.002136	-0.53986	-0.2092	0.005493	-0.004272
56.213	0	-0.019073	0.010834	-0.027924	0.018921	0.032959	0.04715	0.000763	-0.050201	-0.24902	0.01358	-0.008392	0.005188	-0.010071	-0.042877	0.014648	0.008087	-0.089722	0.26627	-0.070648	0.07782	-0.003662	0.28656	0.36545	0.15121	-0.024719	-0.48126	-0.004883	0.20538	-0.12054	0.001984	-0.007324
56.214	-0.012665	-0.05249	-0.048981	-0.01297	0.013885	0.02182	0.080872	-0.005798	-0.070648	-0.28366	0.025787	-0.010834	0.29968	0.10346	0.086212	0.000916	0.011597	-0.11017	0.13519	-0.019073	-0.056305	-0.03067	0.17349	0.29694	0.13916	-0.022888	-0.51559	-0.005493	0.17609	0.020905	0.002136	-0.01358
56.215	0.027161	-0.046082	0.007782	-0.012054	0.016327	0.006256	0.006256	-0.00351	-0.04425	-0.2861	0.017395	-0.005951	0.068512	0.065613	0.042877	-0.019836	0.029755	-0.16754	-0.12512	-0.014343	-0.095825	-0.070038	0.14023	0.20798	0.08728	-0.024567	-0.52383	-0.002747	0.19898	0.12436	0	-0.012817
56.216	-0.001526	-0.024872	0.047455	-0.003967	0.011902	0.0354	-0.010529	-0.003662	0.024109	-0.30487	0.010986	0.002594	-0.23438	0.068207	-0.10269	-0.002441	0.039978	-0.1712	-0.024109	-0.055084	-0.063171	-0.04425	0.14297	0.058441	0.051422	-0.019531	-0.17929	-0.005646	0.67307	0.11658	-0.000916	-0.003815
56.217	0.016479	-0.006104	0.014038	0.000305	0.019226	0.030365	0.068054	-0.007172	0.096436	-0.36606	0.022888	0.003815	-0.42511	0.05188	-0.20325	0.027466	0.039063	-0.10468	0.094757	-0.14084	-0.13153	-0.029907	0.078278	0.068665	0.04776	-0.02182	0.18524	-0.005341	0.30716	0.1358	0.003815	-0.011597
56.218	0.003204	-0.001678	0.037994	-0.010223	0.011902	0.033112	0.12283	-0.009155	0.10635	-0.19989	0.007629	-0.034027	-0.042877	0.1648	-0.18249	0.026703	0.045319	-0.13901	0.16541	-0.13123	-0.17181	0.044556	0.070343	0.043945	0.063629	-0.021973	0.3772	-0.004272	-0.64377	0.1062	0.000305	-0.010529
56.219	-0.00885	0.007019	0.018616	-0.005646	0.010529	0.019379	0.14511	0.000153	0.021362	0.26932	-0.007172	0.17838	-0.061188	0.1535	-0.083466	-0.001526	0.035248	-0.13412	-0.19928	-0.060272	-0.085754	0.10422	0.043945	0.029449	0.054474	-0.019684	0.46768	-0.004578	-1.0878	0.064392	-0.000305	-0.018463
56.22	0.000763	-0.00351	-0.029907	0.001373	0.011749	0.016785	0.15274	-0.002899	0.016632	1.0648	0.003815	-0.081635	-0.37674	0.29541	0.02533	0.010681	0.030212	-0.13031	-0.40802	0.019073	-0.1004	0.042419	0.071716	-0.04364	0.035706	-0.022583	0.31723	-0.003357	-0.55862	0.049591	0.003204	-0.009766
56.221	-0.002594	0.00824	-0.025177	0.007629	0.00351	0.030975	0.15549	0.007172	0.002136	0.86899	0.003052	0.047607	-0.37872	0.39032	0.121	0.054169	0.021057	-0.14542	-0.26611	0.041809	-0.055847	-0.045624	0.041656	-0.081635	0.032196	-0.01358	-0.030975	-0.007324	0.82184	-0.029602	0.001526	-0.007782
56.222	-0.002747	0.031891	-0.027771	0.005035	0.006409	0.022888	0.15198	0.005035	-0.003815	0.18738	-0.024872	0.050659	-0.081024	0.091553	0.17044	-0.011597	-0.030975	-0.10727	-0.36987	0.12131	-0.043335	0.003967	0.049286	-0.011139	0.023041	-0.010681	-0.32364	-0.000916	0.65033	-0.020599	0.000305	-0.011902
56.223	-0.016937	0.039215	0.001373	0.021057	0.008545	0.020447	0.15457	0.007172	-0.020447	-0.090027	-0.022583	-0.061951	0.21606	-0.25116	0.19852	-0.063171	-0.031738	-0.10727	-0.34134	0.15381	-0.19653	0.019836	0.006714	0.005035	0.033569	-0.013428	-0.23407	-0.000763	0.45349	0.01358	0.000763	-0.014038
56.224	-0.004883	0.026093	0.016479	0.018616	0.006866	0.008698	0.13092	-0.003662	-0.05249	0.011902	0.018158	-0.4216	0.099335	-0.64148	0.17914	-0.088959	-0.033417	-0.13046	-0.25528	0.10452	-0.22644	-0.059052	0.032654	0.020294	0.008545	-0.015259	-0.13245	-0.003662	0.37781	0.049133	0.000763	-0.004272
56.225	0.010071	0.055389	-0.005493	0.030365	0.010681	0.009613	0.090942	0.007019	-0.080109	0.11841	0.050659	0.24429	-0.00473	-0.93872	0.053406	-0.085602	-0.014496	-0.096283	-0.23117	-0.001373	-0.088654	-0.12741	0.041046	0.042419	-0.012512	-0.019836	-0.061646	0.00061	0.177	0.089264	0.001068	-0.013885
56.226	0.001984	0.031891	0.005646	0.014496	0.006866	-0.000153	0.02121	0.009918	-0.11566	0.056152	0.021057	0.21637	0.078735	-0.40558	-0.048523	-0.033722	-0.015259	-0.10407	-0.22675	-0.077209	0.03006	-0.17334	0.10025	-0.001373	0.002441	-0.013885	-0.014191	-0.004425	0.24384	0.1236	0.000458	-0.014496
56.227	0.003967	0.04364	-0.034637	-0.001526	0.00824	-0.029449	-0.00351	0.005035	-0.072021	-0.04364	-0.031281	0.13626	0.057068	0.20706	-0.11459	0.080109	-0.00061	-0.08606	-0.32455	-0.020447	0.025787	-0.17029	0.030518	0.007782	0.014954	-0.017548	0.03952	-0.003204	0.26764	0.055847	0.003815	-0.015717
56.228	0.003204	0.04364	0.043793	0.007935	0.006256	-0.032654	-0.015106	0.006561	-0.080414	-0.13153	-0.016937	0.053864	0.086823	0.28854	-0.12085	0.12909	0.017242	-0.068817	-0.035095	-0.042114	0.025482	-0.035095	0.037079	-0.039978	-0.02182	-0.020294	0.073395	-0.005646	0.14252	0.17548	0.001221	-0.019226
56.229	0.006104	0.06012	0.057068	0.00824	0.010529	-0.020447	0.056	0.002289	-0.035095	-0.13321	0.020599	-0.03891	0.13825	0.20218	0.014191	0.061035	0.005646	-0.03067	0.05661	-0.078278	-0.24628	0.16632	-0.032501	0.066071	0.007935	-0.020447	0.098267	0.007629	0.00885	0.14893	0.003052	-0.018921
